<svg width="20" height="23" viewBox="0 0 20 23" fill="none" xmlns="http://www.w3.org/2000/svg">
<path d="M18.4608 9.31054L18.7475 9.58949L19.0264 9.30281L18.7397 9.02386L18.4608 9.31054ZM9.86986 0.951357L10.1488 0.664674V0.664674L9.86986 0.951357ZM17.9029 9.88391L17.6239 10.1706L17.9106 10.4495L18.1896 10.1629L17.9029 9.88391ZM9.99091 2.18536L10.2699 1.89868L9.59091 1.23804V2.18536H9.99091ZM9.99091 22.5159V22.9159H10.3909V22.5159H9.99091ZM9.19091 22.5159H8.79091V22.9159H9.19091V22.5159ZM9.19091 2.18536L9.59091 2.18536V1.23804L8.91196 1.89868L9.19091 2.18536ZM1.27895 9.88391L0.992268 10.1629L1.27122 10.4495L1.5579 10.1706L1.27895 9.88391ZM0.721052 9.31054L0.442102 9.02386L0.15542 9.30281L0.434368 9.58949L0.721052 9.31054ZM9.31196 0.951357L9.03301 0.664674V0.664674L9.31196 0.951357ZM9.59091 0.679932L9.86986 0.393249L9.59091 0.121824L9.31196 0.393249L9.59091 0.679932ZM18.7397 9.02386L10.1488 0.664674L9.59091 1.23804L18.1818 9.59723L18.7397 9.02386ZM18.1896 10.1629L18.7475 9.58949L18.1741 9.03159L17.6162 9.60496L18.1896 10.1629ZM9.71196 2.47204L17.6239 10.1706L18.1818 9.59723L10.2699 1.89868L9.71196 2.47204ZM10.3909 22.5159L10.3909 2.18536H9.59091L9.59091 22.5159H10.3909ZM9.19091 22.9159H9.99091V22.1159H9.19091V22.9159ZM8.79091 2.18536L8.79091 22.5159H9.59091L9.59091 2.18536L8.79091 2.18536ZM1.5579 10.1706L9.46986 2.47204L8.91196 1.89868L1 9.59723L1.5579 10.1706ZM0.434368 9.58949L0.992268 10.1629L1.56563 9.60496L1.00773 9.03159L0.434368 9.58949ZM9.03301 0.664674L0.442102 9.02386L1 9.59723L9.59091 1.23804L9.03301 0.664674ZM9.31196 0.393249L9.03301 0.664674L9.59091 1.23804L9.86986 0.966614L9.31196 0.393249ZM10.1488 0.664674L9.86986 0.393249L9.31196 0.966614L9.59091 1.23804L10.1488 0.664674Z" fill="#15573F"/>
</svg>
